<mxfile host="app.diagrams.net" modified="2023-06-08T07:53:58.966Z" agent="Mozilla/5.0 (Windows NT 10.0; Win64; x64) AppleWebKit/537.36 (KHTML, like Gecko) Chrome/114.0.0.0 Safari/537.36" etag="h8su4D1MgPnryeWcdbnE" version="21.3.7" type="device" pages="5">
  <diagram name="DFD Level 0" id="nrNANabTM4wWS9iLfbQm">
    <mxGraphModel dx="794" dy="459" grid="1" gridSize="10" guides="1" tooltips="1" connect="1" arrows="1" fold="1" page="1" pageScale="1" pageWidth="850" pageHeight="1100" math="0" shadow="0">
      <root>
        <mxCell id="0" />
        <mxCell id="1" parent="0" />
        <mxCell id="6V6f06H9lEluWB9vHmoA-1" value="1.0&lt;br&gt;Proses menambah inventori" style="ellipse;whiteSpace=wrap;html=1;aspect=fixed;fillColor=#f8cecc;strokeColor=#b85450;" parent="1" vertex="1">
          <mxGeometry x="386" y="90" width="110" height="110" as="geometry" />
        </mxCell>
        <mxCell id="6V6f06H9lEluWB9vHmoA-25" style="edgeStyle=orthogonalEdgeStyle;rounded=0;orthogonalLoop=1;jettySize=auto;html=1;entryX=0.5;entryY=0;entryDx=0;entryDy=0;" parent="1" source="6V6f06H9lEluWB9vHmoA-4" target="6V6f06H9lEluWB9vHmoA-7" edge="1">
          <mxGeometry relative="1" as="geometry" />
        </mxCell>
        <mxCell id="6V6f06H9lEluWB9vHmoA-4" value="2.0 &lt;br&gt;Proses penambahan &lt;br&gt;stock-in" style="ellipse;whiteSpace=wrap;html=1;aspect=fixed;fillColor=#f8cecc;strokeColor=#b85450;" parent="1" vertex="1">
          <mxGeometry x="385" y="280" width="110" height="110" as="geometry" />
        </mxCell>
        <mxCell id="6V6f06H9lEluWB9vHmoA-27" style="edgeStyle=orthogonalEdgeStyle;rounded=0;orthogonalLoop=1;jettySize=auto;html=1;entryX=0.5;entryY=1;entryDx=0;entryDy=0;" parent="1" source="6V6f06H9lEluWB9vHmoA-5" target="6V6f06H9lEluWB9vHmoA-7" edge="1">
          <mxGeometry relative="1" as="geometry" />
        </mxCell>
        <mxCell id="6V6f06H9lEluWB9vHmoA-34" style="edgeStyle=orthogonalEdgeStyle;rounded=0;orthogonalLoop=1;jettySize=auto;html=1;entryX=0.25;entryY=1;entryDx=0;entryDy=0;" parent="1" source="6V6f06H9lEluWB9vHmoA-5" target="6V6f06H9lEluWB9vHmoA-6" edge="1">
          <mxGeometry relative="1" as="geometry" />
        </mxCell>
        <mxCell id="6V6f06H9lEluWB9vHmoA-5" value="3.0 Proses penjualan" style="ellipse;whiteSpace=wrap;html=1;aspect=fixed;fillColor=#f8cecc;strokeColor=#b85450;" parent="1" vertex="1">
          <mxGeometry x="385" y="480" width="110" height="110" as="geometry" />
        </mxCell>
        <mxCell id="6V6f06H9lEluWB9vHmoA-6" value="User (Pengelola Warung)" style="rounded=0;whiteSpace=wrap;html=1;fillColor=#dae8fc;strokeColor=#6c8ebf;" parent="1" vertex="1">
          <mxGeometry x="80" y="200" width="120" height="60" as="geometry" />
        </mxCell>
        <mxCell id="6V6f06H9lEluWB9vHmoA-7" value="Customer" style="rounded=0;whiteSpace=wrap;html=1;fillColor=#dae8fc;strokeColor=#6c8ebf;" parent="1" vertex="1">
          <mxGeometry x="640" y="410" width="120" height="60" as="geometry" />
        </mxCell>
        <mxCell id="6V6f06H9lEluWB9vHmoA-8" value="" style="endArrow=classic;html=1;rounded=0;exitX=0;exitY=0.5;exitDx=0;exitDy=0;entryX=0.5;entryY=0;entryDx=0;entryDy=0;" parent="1" source="6V6f06H9lEluWB9vHmoA-1" target="6V6f06H9lEluWB9vHmoA-6" edge="1">
          <mxGeometry width="50" height="50" relative="1" as="geometry">
            <mxPoint x="240" y="180" as="sourcePoint" />
            <mxPoint x="150" y="145" as="targetPoint" />
            <Array as="points">
              <mxPoint x="140" y="145" />
            </Array>
          </mxGeometry>
        </mxCell>
        <mxCell id="6V6f06H9lEluWB9vHmoA-9" value="Data master inventori" style="text;html=1;align=center;verticalAlign=middle;resizable=0;points=[];autosize=1;strokeColor=none;fillColor=none;" parent="1" vertex="1">
          <mxGeometry x="200" y="118" width="140" height="30" as="geometry" />
        </mxCell>
        <mxCell id="6V6f06H9lEluWB9vHmoA-12" value="" style="endArrow=classic;html=1;rounded=0;exitX=0.392;exitY=-0.067;exitDx=0;exitDy=0;exitPerimeter=0;entryX=0.045;entryY=0.236;entryDx=0;entryDy=0;entryPerimeter=0;" parent="1" source="6V6f06H9lEluWB9vHmoA-6" target="6V6f06H9lEluWB9vHmoA-1" edge="1">
          <mxGeometry width="50" height="50" relative="1" as="geometry">
            <mxPoint x="80" y="170" as="sourcePoint" />
            <mxPoint x="150" y="40" as="targetPoint" />
            <Array as="points">
              <mxPoint x="127" y="116" />
            </Array>
          </mxGeometry>
        </mxCell>
        <mxCell id="6V6f06H9lEluWB9vHmoA-13" value="Data master inventori" style="text;html=1;align=center;verticalAlign=middle;resizable=0;points=[];autosize=1;strokeColor=none;fillColor=none;" parent="1" vertex="1">
          <mxGeometry x="190" y="88" width="140" height="30" as="geometry" />
        </mxCell>
        <mxCell id="6V6f06H9lEluWB9vHmoA-14" value="" style="endArrow=classic;html=1;rounded=0;exitX=0;exitY=0.5;exitDx=0;exitDy=0;entryX=0.5;entryY=1;entryDx=0;entryDy=0;" parent="1" source="6V6f06H9lEluWB9vHmoA-4" target="6V6f06H9lEluWB9vHmoA-6" edge="1">
          <mxGeometry width="50" height="50" relative="1" as="geometry">
            <mxPoint x="140" y="430" as="sourcePoint" />
            <mxPoint x="140" y="335" as="targetPoint" />
            <Array as="points">
              <mxPoint x="140" y="335" />
            </Array>
          </mxGeometry>
        </mxCell>
        <mxCell id="6V6f06H9lEluWB9vHmoA-15" value="" style="endArrow=classic;html=1;rounded=0;entryX=0;entryY=1;entryDx=0;entryDy=0;exitX=0.417;exitY=1;exitDx=0;exitDy=0;exitPerimeter=0;" parent="1" source="6V6f06H9lEluWB9vHmoA-6" target="6V6f06H9lEluWB9vHmoA-4" edge="1">
          <mxGeometry width="50" height="50" relative="1" as="geometry">
            <mxPoint x="120" y="280" as="sourcePoint" />
            <mxPoint x="180" y="360" as="targetPoint" />
            <Array as="points">
              <mxPoint x="130" y="374" />
            </Array>
          </mxGeometry>
        </mxCell>
        <mxCell id="6V6f06H9lEluWB9vHmoA-18" value="Data inventori" style="text;html=1;align=center;verticalAlign=middle;resizable=0;points=[];autosize=1;strokeColor=none;fillColor=none;" parent="1" vertex="1">
          <mxGeometry x="220" y="308" width="100" height="30" as="geometry" />
        </mxCell>
        <mxCell id="6V6f06H9lEluWB9vHmoA-21" value="Stock-in barang" style="text;html=1;align=center;verticalAlign=middle;resizable=0;points=[];autosize=1;strokeColor=none;fillColor=none;" parent="1" vertex="1">
          <mxGeometry x="195" y="348" width="110" height="30" as="geometry" />
        </mxCell>
        <mxCell id="6V6f06H9lEluWB9vHmoA-26" value="Data inventori" style="text;html=1;align=center;verticalAlign=middle;resizable=0;points=[];autosize=1;strokeColor=none;fillColor=none;" parent="1" vertex="1">
          <mxGeometry x="530" y="308" width="100" height="30" as="geometry" />
        </mxCell>
        <mxCell id="6V6f06H9lEluWB9vHmoA-28" value="Nota pembayaran" style="text;html=1;align=center;verticalAlign=middle;resizable=0;points=[];autosize=1;strokeColor=none;fillColor=none;" parent="1" vertex="1">
          <mxGeometry x="500" y="508" width="120" height="30" as="geometry" />
        </mxCell>
        <mxCell id="6V6f06H9lEluWB9vHmoA-35" value="Data Penjualan" style="text;html=1;align=center;verticalAlign=middle;resizable=0;points=[];autosize=1;strokeColor=none;fillColor=none;" parent="1" vertex="1">
          <mxGeometry x="215" y="508" width="110" height="30" as="geometry" />
        </mxCell>
        <mxCell id="6V6f06H9lEluWB9vHmoA-37" value="" style="endArrow=classic;html=1;rounded=0;exitX=0.045;exitY=0.745;exitDx=0;exitDy=0;exitPerimeter=0;entryX=0.083;entryY=1.067;entryDx=0;entryDy=0;entryPerimeter=0;" parent="1" source="6V6f06H9lEluWB9vHmoA-5" target="6V6f06H9lEluWB9vHmoA-6" edge="1">
          <mxGeometry width="50" height="50" relative="1" as="geometry">
            <mxPoint x="115" y="620" as="sourcePoint" />
            <mxPoint x="60" y="530" as="targetPoint" />
            <Array as="points">
              <mxPoint x="90" y="562" />
            </Array>
          </mxGeometry>
        </mxCell>
        <mxCell id="6V6f06H9lEluWB9vHmoA-38" value="Data inventori" style="text;html=1;align=center;verticalAlign=middle;resizable=0;points=[];autosize=1;strokeColor=none;fillColor=none;" parent="1" vertex="1">
          <mxGeometry x="230" y="538" width="100" height="30" as="geometry" />
        </mxCell>
        <mxCell id="YtAYGZt7gsWhX-fB_14W-2" value="" style="endArrow=classic;html=1;rounded=0;exitX=0.75;exitY=1;exitDx=0;exitDy=0;entryX=0.964;entryY=0.736;entryDx=0;entryDy=0;entryPerimeter=0;" edge="1" parent="1" source="6V6f06H9lEluWB9vHmoA-7" target="6V6f06H9lEluWB9vHmoA-5">
          <mxGeometry width="50" height="50" relative="1" as="geometry">
            <mxPoint x="750" y="590" as="sourcePoint" />
            <mxPoint x="700" y="580" as="targetPoint" />
            <Array as="points">
              <mxPoint x="730" y="560" />
            </Array>
          </mxGeometry>
        </mxCell>
        <mxCell id="YtAYGZt7gsWhX-fB_14W-3" value="Pembelian barang" style="text;html=1;align=center;verticalAlign=middle;resizable=0;points=[];autosize=1;strokeColor=none;fillColor=none;" vertex="1" parent="1">
          <mxGeometry x="570" y="538" width="120" height="30" as="geometry" />
        </mxCell>
      </root>
    </mxGraphModel>
  </diagram>
  <diagram id="H1Woy0NVvFX5vBy6TlLh" name="DFD Level 1 Proses 1">
    <mxGraphModel dx="794" dy="459" grid="1" gridSize="10" guides="1" tooltips="1" connect="1" arrows="1" fold="1" page="1" pageScale="1" pageWidth="850" pageHeight="1100" math="0" shadow="0">
      <root>
        <mxCell id="0" />
        <mxCell id="1" parent="0" />
        <mxCell id="QOEGryxygl57YnGyu1L9-1" style="edgeStyle=orthogonalEdgeStyle;rounded=0;orthogonalLoop=1;jettySize=auto;html=1;entryX=0;entryY=0.5;entryDx=0;entryDy=0;" parent="1" source="4bgEMqiGWm1VM6ku9c0--1" target="Wm245h9opatdkb-J6Uga-1" edge="1">
          <mxGeometry relative="1" as="geometry" />
        </mxCell>
        <mxCell id="4bgEMqiGWm1VM6ku9c0--1" value="User (Pengelola Warung)" style="rounded=0;whiteSpace=wrap;html=1;fillColor=#dae8fc;strokeColor=#6c8ebf;" parent="1" vertex="1">
          <mxGeometry x="120" y="80" width="120" height="60" as="geometry" />
        </mxCell>
        <mxCell id="Puh3rRFnQpf2xOHNs6TN-2" style="edgeStyle=orthogonalEdgeStyle;rounded=0;orthogonalLoop=1;jettySize=auto;html=1;entryX=0;entryY=0.5;entryDx=0;entryDy=0;" parent="1" source="Wm245h9opatdkb-J6Uga-1" target="wt3FOsB3Co9c10rsflAO-1" edge="1">
          <mxGeometry relative="1" as="geometry" />
        </mxCell>
        <mxCell id="Wm245h9opatdkb-J6Uga-1" value="1.1&lt;br&gt;Menambah inventori master" style="ellipse;whiteSpace=wrap;html=1;aspect=fixed;fillColor=#f8cecc;strokeColor=#b85450;" parent="1" vertex="1">
          <mxGeometry x="400" y="55" width="110" height="110" as="geometry" />
        </mxCell>
        <mxCell id="Puh3rRFnQpf2xOHNs6TN-5" style="edgeStyle=orthogonalEdgeStyle;rounded=0;orthogonalLoop=1;jettySize=auto;html=1;" parent="1" source="wt3FOsB3Co9c10rsflAO-1" edge="1">
          <mxGeometry relative="1" as="geometry">
            <mxPoint x="715" y="240" as="targetPoint" />
            <Array as="points">
              <mxPoint x="715" y="190" />
              <mxPoint x="716" y="190" />
            </Array>
          </mxGeometry>
        </mxCell>
        <mxCell id="Puh3rRFnQpf2xOHNs6TN-8" value="&lt;font style=&quot;font-size: 12px;&quot;&gt;Data master inventori&lt;/font&gt;" style="edgeLabel;html=1;align=center;verticalAlign=middle;resizable=0;points=[];" parent="Puh3rRFnQpf2xOHNs6TN-5" vertex="1" connectable="0">
          <mxGeometry x="0.0251" y="2" relative="1" as="geometry">
            <mxPoint as="offset" />
          </mxGeometry>
        </mxCell>
        <mxCell id="wt3FOsB3Co9c10rsflAO-1" value="1.2&lt;br&gt;Cek pengisian data inventori master" style="ellipse;whiteSpace=wrap;html=1;aspect=fixed;fillColor=#f8cecc;strokeColor=#b85450;" parent="1" vertex="1">
          <mxGeometry x="660" y="55" width="110" height="110" as="geometry" />
        </mxCell>
        <mxCell id="Puh3rRFnQpf2xOHNs6TN-1" value="Data master inventori" style="text;html=1;align=center;verticalAlign=middle;resizable=0;points=[];autosize=1;strokeColor=none;fillColor=none;" parent="1" vertex="1">
          <mxGeometry x="250" y="80" width="140" height="30" as="geometry" />
        </mxCell>
        <mxCell id="Puh3rRFnQpf2xOHNs6TN-3" value="Data master inventori" style="text;html=1;align=center;verticalAlign=middle;resizable=0;points=[];autosize=1;strokeColor=none;fillColor=none;" parent="1" vertex="1">
          <mxGeometry x="510" y="80" width="140" height="30" as="geometry" />
        </mxCell>
        <mxCell id="Puh3rRFnQpf2xOHNs6TN-4" value="" style="shape=link;html=1;rounded=0;width=38;" parent="1" edge="1">
          <mxGeometry width="100" relative="1" as="geometry">
            <mxPoint x="665" y="260" as="sourcePoint" />
            <mxPoint x="765" y="260" as="targetPoint" />
          </mxGeometry>
        </mxCell>
        <mxCell id="Puh3rRFnQpf2xOHNs6TN-12" value="&lt;font style=&quot;font-size: 12px;&quot;&gt;Data master inventori&lt;/font&gt;" style="edgeStyle=orthogonalEdgeStyle;rounded=0;orthogonalLoop=1;jettySize=auto;html=1;entryX=0.5;entryY=0;entryDx=0;entryDy=0;" parent="1" source="Puh3rRFnQpf2xOHNs6TN-9" target="Puh3rRFnQpf2xOHNs6TN-11" edge="1">
          <mxGeometry relative="1" as="geometry">
            <Array as="points">
              <mxPoint x="718" y="330" />
              <mxPoint x="718" y="330" />
            </Array>
          </mxGeometry>
        </mxCell>
        <mxCell id="Puh3rRFnQpf2xOHNs6TN-9" value="Data master inventori" style="text;html=1;align=center;verticalAlign=middle;resizable=0;points=[];autosize=1;strokeColor=none;fillColor=none;" parent="1" vertex="1">
          <mxGeometry x="648" y="250" width="140" height="30" as="geometry" />
        </mxCell>
        <mxCell id="Puh3rRFnQpf2xOHNs6TN-11" value="1.3&lt;br&gt;Tampil data inventori master" style="ellipse;whiteSpace=wrap;html=1;aspect=fixed;fillColor=#f8cecc;strokeColor=#b85450;" parent="1" vertex="1">
          <mxGeometry x="663" y="360" width="110" height="110" as="geometry" />
        </mxCell>
        <mxCell id="v9VmCKzIJIQXdym4Jd---1" value="" style="endArrow=classic;html=1;rounded=0;exitX=0;exitY=0.5;exitDx=0;exitDy=0;entryX=0.575;entryY=1.033;entryDx=0;entryDy=0;entryPerimeter=0;" edge="1" parent="1" source="Puh3rRFnQpf2xOHNs6TN-11" target="4bgEMqiGWm1VM6ku9c0--1">
          <mxGeometry width="50" height="50" relative="1" as="geometry">
            <mxPoint x="350" y="400" as="sourcePoint" />
            <mxPoint x="190" y="330" as="targetPoint" />
            <Array as="points">
              <mxPoint x="190" y="410" />
            </Array>
          </mxGeometry>
        </mxCell>
        <mxCell id="MsqG6-ZugzpBWHukdVpL-1" value="Data master inventori" style="text;html=1;align=center;verticalAlign=middle;resizable=0;points=[];autosize=1;strokeColor=none;fillColor=none;" vertex="1" parent="1">
          <mxGeometry x="380" y="388" width="140" height="30" as="geometry" />
        </mxCell>
      </root>
    </mxGraphModel>
  </diagram>
  <diagram id="59TQ3ITAzBxzMArRfzhU" name="DFD Level 1 Proses 2">
    <mxGraphModel dx="794" dy="459" grid="1" gridSize="10" guides="1" tooltips="1" connect="1" arrows="1" fold="1" page="1" pageScale="1" pageWidth="850" pageHeight="1100" math="0" shadow="0">
      <root>
        <mxCell id="0" />
        <mxCell id="1" parent="0" />
        <mxCell id="y5gDgT2LdotZyiFKij7h-2" style="edgeStyle=orthogonalEdgeStyle;rounded=0;orthogonalLoop=1;jettySize=auto;html=1;" edge="1" parent="1" source="57TjhvKGLsNofDdaM_I1-1" target="y5gDgT2LdotZyiFKij7h-1">
          <mxGeometry relative="1" as="geometry" />
        </mxCell>
        <mxCell id="57TjhvKGLsNofDdaM_I1-1" value="User (Pengelola Warung)" style="rounded=0;whiteSpace=wrap;html=1;fillColor=#dae8fc;strokeColor=#6c8ebf;" parent="1" vertex="1">
          <mxGeometry x="120" y="80" width="120" height="60" as="geometry" />
        </mxCell>
        <mxCell id="O34HF8O1KIWDjR1JomQM-1" value="Customer" style="rounded=0;whiteSpace=wrap;html=1;fillColor=#dae8fc;strokeColor=#6c8ebf;" vertex="1" parent="1">
          <mxGeometry x="653" y="520" width="120" height="60" as="geometry" />
        </mxCell>
        <mxCell id="zBj_LR-89F4J_5O30iPA-1" style="edgeStyle=orthogonalEdgeStyle;rounded=0;orthogonalLoop=1;jettySize=auto;html=1;entryX=0;entryY=0.5;entryDx=0;entryDy=0;" edge="1" parent="1" source="y5gDgT2LdotZyiFKij7h-1" target="dkSKlkZQgYzMoKL5R2fA-1">
          <mxGeometry relative="1" as="geometry" />
        </mxCell>
        <mxCell id="y5gDgT2LdotZyiFKij7h-1" value="2.1&lt;br&gt;Menambahkan jumlah produk (stock-in)" style="ellipse;whiteSpace=wrap;html=1;aspect=fixed;fillColor=#f8cecc;strokeColor=#b85450;" vertex="1" parent="1">
          <mxGeometry x="400" y="55" width="110" height="110" as="geometry" />
        </mxCell>
        <mxCell id="y5gDgT2LdotZyiFKij7h-3" value="Stock-in barang" style="text;html=1;align=center;verticalAlign=middle;resizable=0;points=[];autosize=1;strokeColor=none;fillColor=none;" vertex="1" parent="1">
          <mxGeometry x="255" y="80" width="110" height="30" as="geometry" />
        </mxCell>
        <mxCell id="mZja0j26SJDk1NU02nB8-1" value="" style="shape=link;html=1;rounded=0;width=38;" edge="1" parent="1">
          <mxGeometry width="100" relative="1" as="geometry">
            <mxPoint x="400" y="260" as="sourcePoint" />
            <mxPoint x="500" y="260" as="targetPoint" />
          </mxGeometry>
        </mxCell>
        <mxCell id="5a-uDIulC0qEzD0AhpeL-3" style="edgeStyle=orthogonalEdgeStyle;rounded=0;orthogonalLoop=1;jettySize=auto;html=1;entryX=0.5;entryY=1;entryDx=0;entryDy=0;" edge="1" parent="1" target="y5gDgT2LdotZyiFKij7h-1">
          <mxGeometry relative="1" as="geometry">
            <mxPoint x="455" y="240" as="sourcePoint" />
          </mxGeometry>
        </mxCell>
        <mxCell id="5a-uDIulC0qEzD0AhpeL-1" value="Data master inventori" style="text;html=1;align=center;verticalAlign=middle;resizable=0;points=[];autosize=1;strokeColor=none;fillColor=none;" vertex="1" parent="1">
          <mxGeometry x="382" y="247" width="140" height="30" as="geometry" />
        </mxCell>
        <mxCell id="X_yk_N9L9xQoBv5bGCxl-2" value="&lt;font style=&quot;font-size: 12px;&quot;&gt;Stock-in barang&lt;/font&gt;" style="edgeStyle=orthogonalEdgeStyle;rounded=0;orthogonalLoop=1;jettySize=auto;html=1;" edge="1" parent="1" source="dkSKlkZQgYzMoKL5R2fA-1">
          <mxGeometry relative="1" as="geometry">
            <mxPoint x="715" y="240" as="targetPoint" />
          </mxGeometry>
        </mxCell>
        <mxCell id="dkSKlkZQgYzMoKL5R2fA-1" value="2.2&lt;br&gt;Cek pengisian data penambahan inventori" style="ellipse;whiteSpace=wrap;html=1;aspect=fixed;fillColor=#f8cecc;strokeColor=#b85450;" vertex="1" parent="1">
          <mxGeometry x="660" y="55" width="110" height="110" as="geometry" />
        </mxCell>
        <mxCell id="zBj_LR-89F4J_5O30iPA-2" value="Stock-in barang" style="text;html=1;align=center;verticalAlign=middle;resizable=0;points=[];autosize=1;strokeColor=none;fillColor=none;" vertex="1" parent="1">
          <mxGeometry x="526" y="80" width="110" height="30" as="geometry" />
        </mxCell>
        <mxCell id="JMSGZY74B9V5xDsksQIh-1" value="&lt;font style=&quot;font-size: 12px;&quot;&gt;Data inventori&lt;/font&gt;" style="edgeStyle=orthogonalEdgeStyle;rounded=0;orthogonalLoop=1;jettySize=auto;html=1;" edge="1" parent="1" source="zEiZdbo1Z5SbKFYL-x9Z-1" target="O34HF8O1KIWDjR1JomQM-1">
          <mxGeometry relative="1" as="geometry" />
        </mxCell>
        <mxCell id="JMSGZY74B9V5xDsksQIh-2" style="edgeStyle=orthogonalEdgeStyle;rounded=0;orthogonalLoop=1;jettySize=auto;html=1;entryX=0.5;entryY=1;entryDx=0;entryDy=0;" edge="1" parent="1" source="zEiZdbo1Z5SbKFYL-x9Z-1" target="57TjhvKGLsNofDdaM_I1-1">
          <mxGeometry relative="1" as="geometry" />
        </mxCell>
        <mxCell id="zEiZdbo1Z5SbKFYL-x9Z-1" value="2.3&lt;br&gt;Tampil data inventori / halaman barang tersedia&amp;nbsp;" style="ellipse;whiteSpace=wrap;html=1;aspect=fixed;fillColor=#f8cecc;strokeColor=#b85450;" vertex="1" parent="1">
          <mxGeometry x="658" y="360" width="110" height="110" as="geometry" />
        </mxCell>
        <mxCell id="X_yk_N9L9xQoBv5bGCxl-1" value="" style="shape=link;html=1;rounded=0;width=38;" edge="1" parent="1">
          <mxGeometry width="100" relative="1" as="geometry">
            <mxPoint x="665" y="264.5" as="sourcePoint" />
            <mxPoint x="765" y="264.5" as="targetPoint" />
          </mxGeometry>
        </mxCell>
        <mxCell id="X_yk_N9L9xQoBv5bGCxl-4" value="&lt;font style=&quot;font-size: 12px;&quot;&gt;Data inventori&lt;/font&gt;" style="edgeStyle=orthogonalEdgeStyle;rounded=0;orthogonalLoop=1;jettySize=auto;html=1;entryX=0.5;entryY=0;entryDx=0;entryDy=0;" edge="1" parent="1" source="X_yk_N9L9xQoBv5bGCxl-3" target="zEiZdbo1Z5SbKFYL-x9Z-1">
          <mxGeometry relative="1" as="geometry" />
        </mxCell>
        <mxCell id="X_yk_N9L9xQoBv5bGCxl-3" value="Data inventori" style="text;html=1;align=center;verticalAlign=middle;resizable=0;points=[];autosize=1;strokeColor=none;fillColor=none;" vertex="1" parent="1">
          <mxGeometry x="663" y="252" width="100" height="30" as="geometry" />
        </mxCell>
        <mxCell id="JMSGZY74B9V5xDsksQIh-4" value="Data inventori" style="text;html=1;align=center;verticalAlign=middle;resizable=0;points=[];autosize=1;strokeColor=none;fillColor=none;" vertex="1" parent="1">
          <mxGeometry x="420" y="388" width="100" height="30" as="geometry" />
        </mxCell>
      </root>
    </mxGraphModel>
  </diagram>
  <diagram id="1R9n8wwlzMMrxGNvnHrX" name="DFD Level 1 Proses 3">
    <mxGraphModel dx="794" dy="459" grid="1" gridSize="10" guides="1" tooltips="1" connect="1" arrows="1" fold="1" page="1" pageScale="1" pageWidth="850" pageHeight="1100" math="0" shadow="0">
      <root>
        <mxCell id="0" />
        <mxCell id="1" parent="0" />
        <mxCell id="WYprxcUtESYA794x7q8W-2" style="edgeStyle=orthogonalEdgeStyle;rounded=0;orthogonalLoop=1;jettySize=auto;html=1;entryX=0;entryY=0.5;entryDx=0;entryDy=0;" edge="1" parent="1" source="PAkA9wt_F_FRLC-l7Fg_-1" target="WYprxcUtESYA794x7q8W-1">
          <mxGeometry relative="1" as="geometry" />
        </mxCell>
        <mxCell id="PAkA9wt_F_FRLC-l7Fg_-1" value="Customer" style="rounded=0;whiteSpace=wrap;html=1;fillColor=#dae8fc;strokeColor=#6c8ebf;" vertex="1" parent="1">
          <mxGeometry x="90" y="80" width="120" height="60" as="geometry" />
        </mxCell>
        <mxCell id="V2d2qGg9RaRJgS3sZrkr-1" value="&lt;font style=&quot;font-size: 12px;&quot;&gt;Pembelian barang&lt;/font&gt;" style="edgeStyle=orthogonalEdgeStyle;rounded=0;orthogonalLoop=1;jettySize=auto;html=1;entryX=0.5;entryY=0;entryDx=0;entryDy=0;" edge="1" parent="1" source="WYprxcUtESYA794x7q8W-1" target="3CNfKAFoTPL2E7jtd_Qt-3">
          <mxGeometry relative="1" as="geometry" />
        </mxCell>
        <mxCell id="WYprxcUtESYA794x7q8W-1" value="3.1&lt;br&gt;Memilih barang yang dibeli" style="ellipse;whiteSpace=wrap;html=1;aspect=fixed;fillColor=#f8cecc;strokeColor=#b85450;" vertex="1" parent="1">
          <mxGeometry x="400" y="55" width="110" height="110" as="geometry" />
        </mxCell>
        <mxCell id="WYprxcUtESYA794x7q8W-3" value="Pembelian barang" style="text;html=1;align=center;verticalAlign=middle;resizable=0;points=[];autosize=1;strokeColor=none;fillColor=none;" vertex="1" parent="1">
          <mxGeometry x="240" y="88" width="120" height="30" as="geometry" />
        </mxCell>
        <mxCell id="BLjoiEqk80yk5vsv0Z70-1" value="" style="shape=link;html=1;rounded=0;width=38;" edge="1" parent="1">
          <mxGeometry width="100" relative="1" as="geometry">
            <mxPoint x="645" y="109.5" as="sourcePoint" />
            <mxPoint x="745" y="109.5" as="targetPoint" />
          </mxGeometry>
        </mxCell>
        <mxCell id="3CNfKAFoTPL2E7jtd_Qt-2" style="edgeStyle=orthogonalEdgeStyle;rounded=0;orthogonalLoop=1;jettySize=auto;html=1;entryX=1;entryY=0.5;entryDx=0;entryDy=0;" edge="1" parent="1" source="3CNfKAFoTPL2E7jtd_Qt-1" target="WYprxcUtESYA794x7q8W-1">
          <mxGeometry relative="1" as="geometry" />
        </mxCell>
        <mxCell id="3CNfKAFoTPL2E7jtd_Qt-1" value="Data inventori" style="text;html=1;align=center;verticalAlign=middle;resizable=0;points=[];autosize=1;strokeColor=none;fillColor=none;" vertex="1" parent="1">
          <mxGeometry x="645" y="95" width="100" height="30" as="geometry" />
        </mxCell>
        <mxCell id="awlUnQrv7CXCdUqP9tlQ-3" value="&lt;font style=&quot;font-size: 12px;&quot;&gt;Pembelian barang&lt;/font&gt;" style="edgeStyle=orthogonalEdgeStyle;rounded=0;orthogonalLoop=1;jettySize=auto;html=1;entryX=0.5;entryY=-0.2;entryDx=0;entryDy=0;entryPerimeter=0;" edge="1" parent="1" source="3CNfKAFoTPL2E7jtd_Qt-3" target="awlUnQrv7CXCdUqP9tlQ-2">
          <mxGeometry relative="1" as="geometry" />
        </mxCell>
        <mxCell id="3CNfKAFoTPL2E7jtd_Qt-3" value="3.2&lt;br&gt;Melakukan pembayaran" style="ellipse;whiteSpace=wrap;html=1;aspect=fixed;fillColor=#f8cecc;strokeColor=#b85450;" vertex="1" parent="1">
          <mxGeometry x="400" y="280" width="110" height="110" as="geometry" />
        </mxCell>
        <mxCell id="awlUnQrv7CXCdUqP9tlQ-5" style="edgeStyle=orthogonalEdgeStyle;rounded=0;orthogonalLoop=1;jettySize=auto;html=1;entryX=0.5;entryY=1;entryDx=0;entryDy=0;" edge="1" parent="1" source="sZKoN0PTS5ELcOKJZVe6-1" target="PAkA9wt_F_FRLC-l7Fg_-1">
          <mxGeometry relative="1" as="geometry" />
        </mxCell>
        <mxCell id="BwUOWpXgIffOi0tzkBHr-4" style="edgeStyle=orthogonalEdgeStyle;rounded=0;orthogonalLoop=1;jettySize=auto;html=1;entryX=0;entryY=0.5;entryDx=0;entryDy=0;" edge="1" parent="1" source="sZKoN0PTS5ELcOKJZVe6-1" target="BwUOWpXgIffOi0tzkBHr-1">
          <mxGeometry relative="1" as="geometry" />
        </mxCell>
        <mxCell id="sZKoN0PTS5ELcOKJZVe6-1" value="3.3&lt;br&gt;Point Of Sale" style="ellipse;whiteSpace=wrap;html=1;aspect=fixed;fillColor=#f8cecc;strokeColor=#b85450;" vertex="1" parent="1">
          <mxGeometry x="400" y="560" width="110" height="110" as="geometry" />
        </mxCell>
        <mxCell id="awlUnQrv7CXCdUqP9tlQ-1" value="" style="shape=link;html=1;rounded=0;width=38;" edge="1" parent="1">
          <mxGeometry width="100" relative="1" as="geometry">
            <mxPoint x="404" y="470" as="sourcePoint" />
            <mxPoint x="504" y="470" as="targetPoint" />
          </mxGeometry>
        </mxCell>
        <mxCell id="awlUnQrv7CXCdUqP9tlQ-4" value="&lt;font style=&quot;font-size: 12px;&quot;&gt;Nota pembayaran&lt;/font&gt;" style="edgeStyle=orthogonalEdgeStyle;rounded=0;orthogonalLoop=1;jettySize=auto;html=1;" edge="1" parent="1" source="awlUnQrv7CXCdUqP9tlQ-2" target="sZKoN0PTS5ELcOKJZVe6-1">
          <mxGeometry relative="1" as="geometry" />
        </mxCell>
        <mxCell id="awlUnQrv7CXCdUqP9tlQ-2" value="Data Penjualan" style="text;html=1;align=center;verticalAlign=middle;resizable=0;points=[];autosize=1;strokeColor=none;fillColor=none;" vertex="1" parent="1">
          <mxGeometry x="400" y="460" width="110" height="30" as="geometry" />
        </mxCell>
        <mxCell id="awlUnQrv7CXCdUqP9tlQ-6" value="Nota pembayaran" style="text;html=1;align=center;verticalAlign=middle;resizable=0;points=[];autosize=1;strokeColor=none;fillColor=none;" vertex="1" parent="1">
          <mxGeometry x="200" y="588" width="120" height="30" as="geometry" />
        </mxCell>
        <mxCell id="jnm26tuFMVw-A-UmJhVX-3" value="&lt;font style=&quot;font-size: 12px;&quot;&gt;Data penjualan&lt;/font&gt;" style="edgeStyle=orthogonalEdgeStyle;rounded=0;orthogonalLoop=1;jettySize=auto;html=1;entryX=0.5;entryY=1;entryDx=0;entryDy=0;" edge="1" parent="1" source="BwUOWpXgIffOi0tzkBHr-1" target="jnm26tuFMVw-A-UmJhVX-1">
          <mxGeometry relative="1" as="geometry" />
        </mxCell>
        <mxCell id="BwUOWpXgIffOi0tzkBHr-1" value="3.4&lt;br&gt;Laporan data penjualan" style="ellipse;whiteSpace=wrap;html=1;aspect=fixed;fillColor=#f8cecc;strokeColor=#b85450;" vertex="1" parent="1">
          <mxGeometry x="640" y="560" width="110" height="110" as="geometry" />
        </mxCell>
        <mxCell id="BwUOWpXgIffOi0tzkBHr-5" value="Data penjualan" style="text;html=1;align=center;verticalAlign=middle;resizable=0;points=[];autosize=1;strokeColor=none;fillColor=none;" vertex="1" parent="1">
          <mxGeometry x="520" y="588" width="100" height="30" as="geometry" />
        </mxCell>
        <mxCell id="jnm26tuFMVw-A-UmJhVX-6" value="&lt;font style=&quot;font-size: 12px;&quot;&gt;Data inventori&lt;/font&gt;" style="edgeStyle=orthogonalEdgeStyle;rounded=0;orthogonalLoop=1;jettySize=auto;html=1;entryX=0.5;entryY=1.033;entryDx=0;entryDy=0;entryPerimeter=0;" edge="1" parent="1" source="jnm26tuFMVw-A-UmJhVX-1" target="3CNfKAFoTPL2E7jtd_Qt-1">
          <mxGeometry relative="1" as="geometry" />
        </mxCell>
        <mxCell id="XNqU-ESelekxF0ij9QTZ-2" style="edgeStyle=orthogonalEdgeStyle;rounded=0;orthogonalLoop=1;jettySize=auto;html=1;entryX=0;entryY=0.5;entryDx=0;entryDy=0;" edge="1" parent="1" source="jnm26tuFMVw-A-UmJhVX-1" target="XNqU-ESelekxF0ij9QTZ-1">
          <mxGeometry relative="1" as="geometry" />
        </mxCell>
        <mxCell id="jnm26tuFMVw-A-UmJhVX-1" value="3.5&lt;br&gt;Stock-out barang" style="ellipse;whiteSpace=wrap;html=1;aspect=fixed;fillColor=#f8cecc;strokeColor=#b85450;" vertex="1" parent="1">
          <mxGeometry x="640" y="370" width="110" height="110" as="geometry" />
        </mxCell>
        <mxCell id="XNqU-ESelekxF0ij9QTZ-1" value="User (Pengelola Warung)" style="rounded=0;whiteSpace=wrap;html=1;fillColor=#dae8fc;strokeColor=#6c8ebf;" vertex="1" parent="1">
          <mxGeometry x="870" y="395" width="120" height="60" as="geometry" />
        </mxCell>
        <mxCell id="XNqU-ESelekxF0ij9QTZ-3" value="Data penjualan" style="text;html=1;align=center;verticalAlign=middle;resizable=0;points=[];autosize=1;strokeColor=none;fillColor=none;" vertex="1" parent="1">
          <mxGeometry x="750" y="398" width="100" height="30" as="geometry" />
        </mxCell>
      </root>
    </mxGraphModel>
  </diagram>
  <diagram id="6c_qIjA2nRlbn_fEY7NL" name="DFD Level 2 Proses 1">
    <mxGraphModel dx="794" dy="459" grid="1" gridSize="10" guides="1" tooltips="1" connect="1" arrows="1" fold="1" page="1" pageScale="1" pageWidth="850" pageHeight="1100" math="0" shadow="0">
      <root>
        <mxCell id="0" />
        <mxCell id="1" parent="0" />
        <mxCell id="dcGLQ1_gNlkMA-wMCKDw-1" style="edgeStyle=orthogonalEdgeStyle;rounded=0;orthogonalLoop=1;jettySize=auto;html=1;entryX=0;entryY=0.5;entryDx=0;entryDy=0;" edge="1" parent="1" source="dcGLQ1_gNlkMA-wMCKDw-2" target="dcGLQ1_gNlkMA-wMCKDw-4">
          <mxGeometry relative="1" as="geometry" />
        </mxCell>
        <mxCell id="dcGLQ1_gNlkMA-wMCKDw-20" style="edgeStyle=orthogonalEdgeStyle;rounded=0;orthogonalLoop=1;jettySize=auto;html=1;exitX=0.5;exitY=1;exitDx=0;exitDy=0;entryX=0;entryY=0.5;entryDx=0;entryDy=0;" edge="1" parent="1" source="dcGLQ1_gNlkMA-wMCKDw-2" target="dcGLQ1_gNlkMA-wMCKDw-17">
          <mxGeometry relative="1" as="geometry" />
        </mxCell>
        <mxCell id="dcGLQ1_gNlkMA-wMCKDw-2" value="User (Pengelola Warung)" style="rounded=0;whiteSpace=wrap;html=1;fillColor=#dae8fc;strokeColor=#6c8ebf;" vertex="1" parent="1">
          <mxGeometry x="120" y="80" width="120" height="60" as="geometry" />
        </mxCell>
        <mxCell id="dcGLQ1_gNlkMA-wMCKDw-3" style="edgeStyle=orthogonalEdgeStyle;rounded=0;orthogonalLoop=1;jettySize=auto;html=1;entryX=0;entryY=0.5;entryDx=0;entryDy=0;" edge="1" parent="1" source="dcGLQ1_gNlkMA-wMCKDw-4">
          <mxGeometry relative="1" as="geometry">
            <mxPoint x="660" y="110" as="targetPoint" />
          </mxGeometry>
        </mxCell>
        <mxCell id="dcGLQ1_gNlkMA-wMCKDw-4" value="1.1&lt;br&gt;Create data master inventori" style="ellipse;whiteSpace=wrap;html=1;aspect=fixed;fillColor=#f8cecc;strokeColor=#b85450;" vertex="1" parent="1">
          <mxGeometry x="400" y="55" width="110" height="110" as="geometry" />
        </mxCell>
        <mxCell id="dcGLQ1_gNlkMA-wMCKDw-8" value="Data master inventori" style="text;html=1;align=center;verticalAlign=middle;resizable=0;points=[];autosize=1;strokeColor=none;fillColor=none;" vertex="1" parent="1">
          <mxGeometry x="250" y="80" width="140" height="30" as="geometry" />
        </mxCell>
        <mxCell id="dcGLQ1_gNlkMA-wMCKDw-9" value="Data master inventori" style="text;html=1;align=center;verticalAlign=middle;resizable=0;points=[];autosize=1;strokeColor=none;fillColor=none;" vertex="1" parent="1">
          <mxGeometry x="510" y="80" width="140" height="30" as="geometry" />
        </mxCell>
        <mxCell id="8LwdnT9Nxj_03OwSbexv-6" style="edgeStyle=orthogonalEdgeStyle;rounded=0;orthogonalLoop=1;jettySize=auto;html=1;entryX=0.036;entryY=0.567;entryDx=0;entryDy=0;entryPerimeter=0;" edge="1" parent="1" source="dcGLQ1_gNlkMA-wMCKDw-17" target="8LwdnT9Nxj_03OwSbexv-5">
          <mxGeometry relative="1" as="geometry" />
        </mxCell>
        <mxCell id="dcGLQ1_gNlkMA-wMCKDw-17" value="1.1.2&lt;br&gt;Update data master inventori" style="ellipse;whiteSpace=wrap;html=1;aspect=fixed;fillColor=#f8cecc;strokeColor=#b85450;" vertex="1" parent="1">
          <mxGeometry x="400" y="200" width="110" height="110" as="geometry" />
        </mxCell>
        <mxCell id="8LwdnT9Nxj_03OwSbexv-10" value="Data master inventori" style="edgeStyle=orthogonalEdgeStyle;rounded=0;orthogonalLoop=1;jettySize=auto;html=1;exitX=1;exitY=0.5;exitDx=0;exitDy=0;entryX=0.471;entryY=-0.233;entryDx=0;entryDy=0;entryPerimeter=0;" edge="1" parent="1" source="CmVrmK5dznJKQfOQZkee-1" target="8LwdnT9Nxj_03OwSbexv-5">
          <mxGeometry x="0.3532" relative="1" as="geometry">
            <mxPoint as="offset" />
          </mxGeometry>
        </mxCell>
        <mxCell id="CmVrmK5dznJKQfOQZkee-1" value="1.1.3&lt;br&gt;Cek pengisian data inventori master" style="ellipse;whiteSpace=wrap;html=1;aspect=fixed;fillColor=#f8cecc;strokeColor=#b85450;" vertex="1" parent="1">
          <mxGeometry x="660" y="55" width="110" height="110" as="geometry" />
        </mxCell>
        <mxCell id="8LwdnT9Nxj_03OwSbexv-3" value="" style="shape=link;html=1;rounded=0;width=38;" edge="1" parent="1">
          <mxGeometry width="100" relative="1" as="geometry">
            <mxPoint x="760" y="254.5" as="sourcePoint" />
            <mxPoint x="860" y="254.5" as="targetPoint" />
          </mxGeometry>
        </mxCell>
        <mxCell id="z2UVf_TsaKRS7D6T1pGX-4" style="edgeStyle=orthogonalEdgeStyle;rounded=0;orthogonalLoop=1;jettySize=auto;html=1;entryX=1;entryY=0.5;entryDx=0;entryDy=0;" edge="1" parent="1" source="8LwdnT9Nxj_03OwSbexv-5" target="z2UVf_TsaKRS7D6T1pGX-1">
          <mxGeometry relative="1" as="geometry" />
        </mxCell>
        <mxCell id="8LwdnT9Nxj_03OwSbexv-5" value="Data master inventori" style="text;html=1;align=center;verticalAlign=middle;resizable=0;points=[];autosize=1;strokeColor=none;fillColor=none;" vertex="1" parent="1">
          <mxGeometry x="742" y="240" width="140" height="30" as="geometry" />
        </mxCell>
        <mxCell id="8LwdnT9Nxj_03OwSbexv-9" value="Simpan data master inventori" style="text;html=1;align=center;verticalAlign=middle;resizable=0;points=[];autosize=1;strokeColor=none;fillColor=none;" vertex="1" parent="1">
          <mxGeometry x="540" y="228" width="180" height="30" as="geometry" />
        </mxCell>
        <mxCell id="8LwdnT9Nxj_03OwSbexv-12" value="" style="endArrow=classic;html=1;rounded=0;exitX=0.471;exitY=1.2;exitDx=0;exitDy=0;exitPerimeter=0;entryX=0.955;entryY=0.8;entryDx=0;entryDy=0;entryPerimeter=0;" edge="1" parent="1" source="8LwdnT9Nxj_03OwSbexv-5" target="dcGLQ1_gNlkMA-wMCKDw-17">
          <mxGeometry width="50" height="50" relative="1" as="geometry">
            <mxPoint x="787" y="410" as="sourcePoint" />
            <mxPoint x="520" y="300" as="targetPoint" />
            <Array as="points">
              <mxPoint x="808" y="290" />
            </Array>
          </mxGeometry>
        </mxCell>
        <mxCell id="8LwdnT9Nxj_03OwSbexv-14" value="Data master inventori" style="text;html=1;align=center;verticalAlign=middle;resizable=0;points=[];autosize=1;strokeColor=none;fillColor=none;" vertex="1" parent="1">
          <mxGeometry x="570" y="268" width="140" height="30" as="geometry" />
        </mxCell>
        <mxCell id="z2UVf_TsaKRS7D6T1pGX-1" value="1.1.4&lt;br&gt;Tampil data inventori master" style="ellipse;whiteSpace=wrap;html=1;aspect=fixed;fillColor=#f8cecc;strokeColor=#b85450;" vertex="1" parent="1">
          <mxGeometry x="660" y="360" width="110" height="110" as="geometry" />
        </mxCell>
        <mxCell id="pWcs31j-S2YsXKnkzUrq-1" value="" style="endArrow=classic;html=1;rounded=0;exitX=0;exitY=0.5;exitDx=0;exitDy=0;entryX=0.183;entryY=1.033;entryDx=0;entryDy=0;entryPerimeter=0;" edge="1" parent="1" source="z2UVf_TsaKRS7D6T1pGX-1" target="dcGLQ1_gNlkMA-wMCKDw-2">
          <mxGeometry width="50" height="50" relative="1" as="geometry">
            <mxPoint x="270" y="420" as="sourcePoint" />
            <mxPoint x="140" y="320" as="targetPoint" />
            <Array as="points">
              <mxPoint x="140" y="410" />
            </Array>
          </mxGeometry>
        </mxCell>
        <mxCell id="pWcs31j-S2YsXKnkzUrq-2" value="Data master inventori" style="text;html=1;align=center;verticalAlign=middle;resizable=0;points=[];autosize=1;strokeColor=none;fillColor=none;" vertex="1" parent="1">
          <mxGeometry x="390" y="389" width="140" height="30" as="geometry" />
        </mxCell>
      </root>
    </mxGraphModel>
  </diagram>
</mxfile>
